# xmcd
#
# Track frame offsets:
#	150
#	29012
#	49215
#	65033
#	83595
#	104971
#	113002
#	138680
#
# Disc length: 2825 seconds
#
# Revision: 1
# Processed by: cddbd v1.5.2PL0 Copyright (c) Steve Scherf et al.
# Submitted via: audiograbber 1.83.01
#
DISCID=780b0708
DTITLE=Terminal Spirit - Desolat
DYEAR=2007
DGENRE=Black Metal
TTITLE0=Engel der Leere
TTITLE1=Desolat
TTITLE2=Sturmgeweiht
TTITLE3=Hyarlathotep
TTITLE4=Eternal Bloodshed
TTITLE5=Unendlichkeit
TTITLE6=Zerstörung
TTITLE7=Daten-CD
EXTD=
EXTT0=
EXTT1=
EXTT2=
EXTT3=
EXTT4=
EXTT5=
EXTT6=
EXTT7=
PLAYORDER=
